<svg width="163" height="55" viewBox="0 0 163 55" fill="none" xmlns="http://www.w3.org/2000/svg">
<path d="M62.4113 51.8794H1.56028C0.698564 51.8794 0 52.578 0 53.4397C0 54.3014 0.698564 55 1.56028 55H62.4113C63.2731 55 63.9716 54.3014 63.9716 53.4397C63.9716 52.578 63.2731 51.8794 62.4113 51.8794Z" fill="black"/>
<path fill-rule="evenodd" clip-rule="evenodd" d="M4.68085 51.6844V24.9037C4.68036 24.652 4.73428 24.4027 4.83951 24.17C4.94475 23.9373 5.09924 23.7258 5.29417 23.5476L30.4987 0.562721C30.6938 0.384348 30.9256 0.242827 31.1808 0.146265C31.436 0.0497052 31.7095 0 31.9858 0C32.2621 0 32.5356 0.0497052 32.7908 0.146265C33.046 0.242827 33.2778 0.384348 33.4729 0.562721L44.5881 10.7029V5.74964C44.5881 5.24164 44.8094 4.75445 45.2033 4.39524C45.5972 4.03603 46.1314 3.83423 46.6885 3.83423H50.8893C51.4463 3.83423 51.9805 4.03603 52.3744 4.39524C52.7683 4.75445 52.9896 5.24164 52.9896 5.74964V18.3645L58.6775 23.5476C58.8724 23.7258 59.0269 23.9373 59.1321 24.17C59.2374 24.4027 59.2913 24.652 59.2908 24.9037V51.6844H4.68085ZM26.474 12.3278C26.474 11.9117 26.6321 11.5539 26.9483 11.2543C27.2812 10.9548 27.6806 10.805 28.1466 10.805H39.4556C39.4556 11.8035 39.2808 12.5358 38.9313 13.0018C38.5985 13.4512 38.0492 13.6759 37.2837 13.6759H29.8193V17.8949H36.4598C36.4598 18.8935 36.2851 19.6258 35.9356 20.0918C35.6027 20.5411 35.0535 20.7658 34.2879 20.7658H29.8193V26.1332C29.8193 26.9653 29.553 27.5728 29.0204 27.9556C28.4878 28.3218 27.639 28.5048 26.474 28.5048V12.3278ZM28.8469 49.2145C29.962 49.5806 31.2685 49.7637 32.7663 49.7637C34.181 49.7637 35.4126 49.564 36.4611 49.1645C37.5263 48.7485 38.3418 48.166 38.9076 47.417C39.4901 46.6514 39.7814 45.761 39.7814 44.7458C39.7814 43.7639 39.5567 42.94 39.1073 42.2743C38.658 41.592 37.934 41.0178 36.9354 40.5518C35.9368 40.0691 34.5804 39.6364 32.8662 39.2536C31.851 39.0206 31.0688 38.7959 30.5195 38.5796C29.9703 38.3466 29.5792 38.0803 29.3462 37.7807C29.1132 37.4645 28.9967 37.0734 28.9967 36.6074C28.9967 35.9417 29.2963 35.4257 29.8954 35.0596C30.4946 34.6934 31.3517 34.5104 32.4668 34.5104C33.7649 34.5104 34.7302 34.7766 35.3627 35.3092C35.9951 35.8418 36.3612 36.6823 36.4611 37.8306C38.2419 37.7807 39.1323 37.14 39.1323 35.9084C39.1323 35.1095 38.8411 34.4022 38.2585 33.7864C37.6927 33.1706 36.9021 32.6963 35.8869 32.3634C34.8883 32.0139 33.7483 31.8391 32.4668 31.8391C31.1353 31.8391 29.9537 32.0389 28.9218 32.4383C27.9066 32.8377 27.116 33.3953 26.5502 34.1109C26.001 34.8266 25.7263 35.6587 25.7263 36.6074C25.7263 37.5893 25.9344 38.4131 26.3505 39.0789C26.7665 39.7279 27.4406 40.2855 28.3726 40.7515C29.3212 41.2175 30.6111 41.6419 32.2421 42.0247C33.3905 42.2743 34.2642 42.524 34.8634 42.7736C35.4625 43.0066 35.8869 43.2812 36.1366 43.5974C36.3862 43.897 36.511 44.2881 36.511 44.7708C36.511 45.5031 36.1865 46.0773 35.5374 46.4933C34.8883 46.8928 33.973 47.0925 32.7913 47.0925C31.36 47.0925 30.2449 46.7679 29.4461 46.1189C28.6638 45.4698 28.2394 44.5128 28.1729 43.2479C26.3255 43.2479 25.4018 43.9303 25.4018 45.295C25.4018 46.1938 25.6931 46.9843 26.2756 47.6667C26.8747 48.3324 27.7318 48.8483 28.8469 49.2145Z" fill="black"/>
<path d="M62.8613 12.664C62.8613 12.264 63.0133 11.92 63.3173 11.632C63.6373 11.344 64.0213 11.2 64.4693 11.2H75.3413C75.3413 12.16 75.1733 12.864 74.8373 13.312C74.5173 13.744 73.9893 13.96 73.2533 13.96H66.0773V18.016H72.4613C72.4613 18.976 72.2933 19.68 71.9573 20.128C71.6373 20.56 71.1093 20.776 70.3733 20.776H66.0773V25.936C66.0773 26.736 65.8213 27.32 65.3093 27.688C64.7973 28.04 63.9813 28.216 62.8613 28.216V12.664ZM78.0252 14.656C77.4492 14.656 76.9692 14.488 76.5852 14.152C76.2172 13.8 76.0332 13.352 76.0332 12.808C76.0332 12.28 76.2172 11.848 76.5852 11.512C76.9692 11.16 77.4492 10.984 78.0252 10.984C78.6012 10.984 79.0732 11.16 79.4412 11.512C79.8252 11.848 80.0172 12.28 80.0172 12.808C80.0172 13.352 79.8252 13.8 79.4412 14.152C79.0732 14.488 78.6012 14.656 78.0252 14.656ZM76.5132 17.608C76.5132 16.952 76.7612 16.488 77.2572 16.216C77.7532 15.928 78.5052 15.784 79.5132 15.784V26.392C79.5132 27.032 79.2652 27.496 78.7692 27.784C78.2732 28.072 77.5212 28.216 76.5132 28.216V17.608ZM82.8535 18.088C82.8535 17.352 83.0855 16.784 83.5495 16.384C84.0295 15.984 84.7495 15.784 85.7095 15.784V17.224C85.5175 17.448 85.3255 17.704 85.1335 17.992L85.2775 18.088C85.7575 17.368 86.3735 16.808 87.1255 16.408C87.8775 15.992 88.7095 15.784 89.6215 15.784C90.4375 15.784 91.1575 15.968 91.7815 16.336C92.4055 16.704 92.8855 17.208 93.2215 17.848C93.5735 18.488 93.7495 19.208 93.7495 20.008V26.392C93.7495 27.032 93.5015 27.496 93.0055 27.784C92.5095 28.072 91.7575 28.216 90.7495 28.216V20.44C90.7495 19.832 90.5655 19.336 90.1975 18.952C89.8455 18.568 89.3255 18.376 88.6375 18.376C87.8215 18.376 87.1495 18.632 86.6215 19.144C86.0935 19.64 85.8295 20.264 85.8295 21.016V26.392C85.8295 27.032 85.5895 27.496 85.1095 27.784C84.6295 28.072 83.8775 28.216 82.8535 28.216V18.088ZM100.408 28.216C99.5918 28.216 98.8398 28.056 98.1518 27.736C97.4798 27.416 96.9358 26.96 96.5198 26.368C96.1198 25.76 95.9198 25.04 95.9198 24.208C95.9198 23.376 96.1358 22.656 96.5678 22.048C96.9998 21.424 97.5838 20.952 98.3198 20.632C99.0718 20.296 99.8958 20.128 100.792 20.128C101.528 20.128 102.184 20.248 102.76 20.488C103.352 20.712 103.896 21.056 104.392 21.52L104.512 21.4C104.368 21.256 104.12 21.04 103.768 20.752V20.272C103.768 19.616 103.536 19.096 103.072 18.712C102.608 18.328 101.96 18.136 101.128 18.136C99.6398 18.136 98.5438 18.68 97.8398 19.768C97.4878 19.656 97.1918 19.48 96.9518 19.24C96.7118 18.984 96.5918 18.712 96.5918 18.424C96.5918 17.944 96.8078 17.504 97.2398 17.104C97.6718 16.704 98.2558 16.384 98.9918 16.144C99.7278 15.904 100.528 15.784 101.392 15.784C103.088 15.784 104.4 16.184 105.328 16.984C106.256 17.768 106.72 18.84 106.72 20.2V26.2C106.72 26.904 106.496 27.416 106.048 27.736C105.6 28.056 104.896 28.216 103.936 28.216V27.232C104.208 26.96 104.392 26.76 104.488 26.632L104.392 26.512C103.864 27.072 103.296 27.496 102.688 27.784C102.096 28.072 101.336 28.216 100.408 28.216ZM101.176 26.032C102.008 26.032 102.656 25.872 103.12 25.552C103.584 25.232 103.816 24.776 103.816 24.184C103.816 23.608 103.576 23.152 103.096 22.816C102.632 22.48 102 22.312 101.2 22.312C100.464 22.312 99.8798 22.48 99.4478 22.816C99.0318 23.136 98.8238 23.592 98.8238 24.184C98.8238 24.792 99.0318 25.256 99.4478 25.576C99.8638 25.88 100.44 26.032 101.176 26.032ZM109.408 18.088C109.408 17.352 109.64 16.784 110.104 16.384C110.584 15.984 111.304 15.784 112.264 15.784V17.224C112.072 17.448 111.88 17.704 111.688 17.992L111.832 18.088C112.312 17.368 112.928 16.808 113.68 16.408C114.432 15.992 115.264 15.784 116.176 15.784C116.992 15.784 117.712 15.968 118.336 16.336C118.96 16.704 119.44 17.208 119.776 17.848C120.128 18.488 120.304 19.208 120.304 20.008V26.392C120.304 27.032 120.056 27.496 119.56 27.784C119.064 28.072 118.312 28.216 117.304 28.216V20.44C117.304 19.832 117.12 19.336 116.752 18.952C116.4 18.568 115.88 18.376 115.192 18.376C114.376 18.376 113.704 18.632 113.176 19.144C112.648 19.64 112.384 20.264 112.384 21.016V26.392C112.384 27.032 112.144 27.496 111.664 27.784C111.184 28.072 110.432 28.216 109.408 28.216V18.088ZM128.139 28.216C127.099 28.216 126.179 28.032 125.379 27.664C124.579 27.28 123.955 26.752 123.507 26.08C123.059 25.408 122.835 24.648 122.835 23.8V20.44C122.835 19.528 123.059 18.72 123.507 18.016C123.955 17.312 124.579 16.768 125.379 16.384C126.179 15.984 127.091 15.784 128.115 15.784C129.075 15.784 129.923 15.92 130.659 16.192C131.411 16.464 131.995 16.848 132.411 17.344C132.827 17.824 133.035 18.384 133.035 19.024C133.035 19.52 132.843 19.92 132.459 20.224C132.075 20.528 131.571 20.68 130.947 20.68C130.771 20.68 130.643 20.672 130.563 20.656C130.563 19.968 130.339 19.416 129.891 19C129.459 18.584 128.891 18.376 128.187 18.376C127.483 18.376 126.907 18.576 126.459 18.976C126.027 19.376 125.811 19.904 125.811 20.56V23.584C125.811 24.192 126.035 24.688 126.483 25.072C126.931 25.44 127.507 25.624 128.211 25.624C128.915 25.624 129.491 25.416 129.939 25C130.387 24.568 130.611 24.024 130.611 23.368C130.707 23.352 130.843 23.344 131.019 23.344C131.643 23.344 132.147 23.488 132.531 23.776C132.915 24.064 133.107 24.456 133.107 24.952C133.107 25.592 132.891 26.16 132.459 26.656C132.043 27.136 131.459 27.52 130.707 27.808C129.955 28.08 129.099 28.216 128.139 28.216ZM137.392 14.656C136.816 14.656 136.336 14.488 135.952 14.152C135.584 13.8 135.4 13.352 135.4 12.808C135.4 12.28 135.584 11.848 135.952 11.512C136.336 11.16 136.816 10.984 137.392 10.984C137.968 10.984 138.44 11.16 138.808 11.512C139.192 11.848 139.384 12.28 139.384 12.808C139.384 13.352 139.192 13.8 138.808 14.152C138.44 14.488 137.968 14.656 137.392 14.656ZM135.88 17.608C135.88 16.952 136.128 16.488 136.624 16.216C137.12 15.928 137.872 15.784 138.88 15.784V26.392C138.88 27.032 138.632 27.496 138.136 27.784C137.64 28.072 136.888 28.216 135.88 28.216V17.608ZM146.205 28.216C145.389 28.216 144.637 28.056 143.949 27.736C143.277 27.416 142.733 26.96 142.317 26.368C141.917 25.76 141.717 25.04 141.717 24.208C141.717 23.376 141.933 22.656 142.365 22.048C142.797 21.424 143.381 20.952 144.117 20.632C144.869 20.296 145.693 20.128 146.589 20.128C147.325 20.128 147.981 20.248 148.557 20.488C149.149 20.712 149.693 21.056 150.189 21.52L150.309 21.4C150.165 21.256 149.917 21.04 149.565 20.752V20.272C149.565 19.616 149.333 19.096 148.869 18.712C148.405 18.328 147.757 18.136 146.925 18.136C145.437 18.136 144.341 18.68 143.637 19.768C143.285 19.656 142.989 19.48 142.749 19.24C142.509 18.984 142.389 18.712 142.389 18.424C142.389 17.944 142.605 17.504 143.037 17.104C143.469 16.704 144.053 16.384 144.789 16.144C145.525 15.904 146.325 15.784 147.189 15.784C148.885 15.784 150.197 16.184 151.125 16.984C152.053 17.768 152.517 18.84 152.517 20.2V26.2C152.517 26.904 152.293 27.416 151.845 27.736C151.397 28.056 150.693 28.216 149.733 28.216V27.232C150.005 26.96 150.189 26.76 150.285 26.632L150.189 26.512C149.661 27.072 149.093 27.496 148.485 27.784C147.893 28.072 147.133 28.216 146.205 28.216ZM146.973 26.032C147.805 26.032 148.453 25.872 148.917 25.552C149.381 25.232 149.613 24.776 149.613 24.184C149.613 23.608 149.373 23.152 148.893 22.816C148.429 22.48 147.797 22.312 146.997 22.312C146.261 22.312 145.677 22.48 145.245 22.816C144.829 23.136 144.621 23.592 144.621 24.184C144.621 24.792 144.829 25.256 145.245 25.576C145.661 25.88 146.237 26.032 146.973 26.032ZM159.141 28.216C157.813 28.216 156.805 27.84 156.117 27.088C155.445 26.32 155.109 25.352 155.109 24.184V12.808C155.109 12.152 155.349 11.688 155.829 11.416C156.325 11.128 157.085 10.984 158.109 10.984V24.064C158.109 24.608 158.229 25.008 158.469 25.264C158.709 25.504 159.093 25.624 159.621 25.624C160.213 25.624 160.805 25.472 161.397 25.168C161.557 25.312 161.677 25.496 161.757 25.72C161.853 25.928 161.901 26.144 161.901 26.368C161.901 26.848 161.661 27.28 161.181 27.664C160.701 28.032 160.021 28.216 159.141 28.216Z" fill="black"/>
<path d="M69.1918 49.216C67.7518 49.216 66.4958 49.04 65.4238 48.688C64.3518 48.336 63.5278 47.84 62.9518 47.2C62.3918 46.544 62.1118 45.784 62.1118 44.92C62.1118 43.608 62.9998 42.952 64.7758 42.952C64.8398 44.168 65.2478 45.088 65.9998 45.712C66.7678 46.336 67.8398 46.648 69.2158 46.648C70.3518 46.648 71.2318 46.456 71.8558 46.072C72.4798 45.672 72.7918 45.12 72.7918 44.416C72.7918 43.952 72.6718 43.576 72.4318 43.288C72.1918 42.984 71.7838 42.72 71.2078 42.496C70.6318 42.256 69.7918 42.016 68.6878 41.776C67.1198 41.408 65.8798 41 64.9678 40.552C64.0718 40.104 63.4238 39.568 63.0238 38.944C62.6238 38.304 62.4238 37.512 62.4238 36.568C62.4238 35.656 62.6878 34.856 63.2158 34.168C63.7598 33.48 64.5198 32.944 65.4958 32.56C66.4878 32.176 67.6238 31.984 68.9038 31.984C70.1358 31.984 71.2318 32.152 72.1918 32.488C73.1678 32.808 73.9278 33.264 74.4718 33.856C75.0318 34.448 75.3118 35.128 75.3118 35.896C75.3118 37.08 74.4558 37.696 72.7438 37.744C72.6478 36.64 72.2958 35.832 71.6878 35.32C71.0798 34.808 70.1518 34.552 68.9038 34.552C67.8318 34.552 67.0078 34.728 66.4318 35.08C65.8558 35.432 65.5678 35.928 65.5678 36.568C65.5678 37.016 65.6798 37.392 65.9038 37.696C66.1278 37.984 66.5038 38.24 67.0318 38.464C67.5598 38.672 68.3118 38.888 69.2878 39.112C70.9358 39.48 72.2398 39.896 73.1998 40.36C74.1598 40.808 74.8558 41.36 75.2878 42.016C75.7198 42.656 75.9358 43.448 75.9358 44.392C75.9358 45.368 75.6558 46.224 75.0958 46.96C74.5518 47.68 73.7678 48.24 72.7438 48.64C71.7358 49.024 70.5518 49.216 69.1918 49.216ZM79.3477 54.016C78.7237 54.016 78.2277 53.8 77.8597 53.368C77.5077 52.936 77.3317 52.312 77.3317 51.496C77.8117 51.576 78.2117 51.616 78.5317 51.616C79.1397 51.616 79.6197 51.456 79.9717 51.136C80.3397 50.816 80.7397 50.176 81.1717 49.216L81.5557 48.328L76.9237 37.024C77.0357 36.96 77.2277 36.904 77.4997 36.856C77.7877 36.808 78.0197 36.784 78.1957 36.784C78.6597 36.784 79.0837 36.888 79.4677 37.096C79.8517 37.288 80.1157 37.56 80.2597 37.912L82.8277 44.656L82.4197 45.784L82.6357 45.856L85.7317 37.912C85.8757 37.544 86.1317 37.264 86.4997 37.072C86.8837 36.88 87.3077 36.784 87.7717 36.784C87.9477 36.784 88.1717 36.808 88.4437 36.856C88.7317 36.904 88.9397 36.96 89.0677 37.024L83.6917 50.08C83.1317 51.424 82.5157 52.416 81.8437 53.056C81.1877 53.696 80.3557 54.016 79.3477 54.016ZM95.1669 49.216C93.6309 49.216 92.3909 48.944 91.4469 48.4C90.5189 47.84 90.0469 47.096 90.0309 46.168C90.0309 45.768 90.1909 45.432 90.5109 45.16C90.8469 44.888 91.3749 44.744 92.0949 44.728C92.2389 45.432 92.5749 45.976 93.1029 46.36C93.6309 46.728 94.2709 46.912 95.0229 46.912C95.8389 46.912 96.4789 46.808 96.9429 46.6C97.4069 46.392 97.6389 46.08 97.6389 45.664C97.6389 45.28 97.4469 44.96 97.0629 44.704C96.6949 44.448 95.9589 44.192 94.8549 43.936C93.6549 43.648 92.7189 43.36 92.0469 43.072C91.3909 42.784 90.9029 42.416 90.5829 41.968C90.2629 41.52 90.1029 40.928 90.1029 40.192C90.1029 39.168 90.5349 38.344 91.3989 37.72C92.2629 37.096 93.4469 36.784 94.9509 36.784C96.4069 36.784 97.6149 37.048 98.5749 37.576C99.5349 38.088 100.015 38.776 100.015 39.64C100.015 40.072 99.8549 40.392 99.5349 40.6C99.2149 40.808 98.6869 40.92 97.9509 40.936C97.7909 40.296 97.4869 39.816 97.0389 39.496C96.5909 39.176 95.9589 39.016 95.1429 39.016C94.5349 39.016 94.0069 39.12 93.5589 39.328C93.1269 39.536 92.9109 39.808 92.9109 40.144C92.9109 40.496 93.0949 40.768 93.4629 40.96C93.8309 41.152 94.4709 41.344 95.3829 41.536C97.1749 41.92 98.4709 42.432 99.2709 43.072C100.087 43.712 100.495 44.584 100.495 45.688C100.495 46.76 100.015 47.616 99.0549 48.256C98.1109 48.896 96.8149 49.216 95.1669 49.216ZM107.28 49.216C105.984 49.216 105.024 48.84 104.4 48.088C103.776 47.336 103.464 46.368 103.464 45.184V39.232H100.992C100.992 38.48 101.136 37.92 101.424 37.552C101.712 37.184 102.096 37 102.576 37H103.512V35.008C103.512 34.352 103.752 33.888 104.232 33.616C104.712 33.328 105.44 33.184 106.416 33.184V37H109.608C109.608 37.8 109.456 38.376 109.152 38.728C108.848 39.064 108.36 39.232 107.688 39.232H106.464V45.064C106.464 45.624 106.568 46.024 106.776 46.264C107 46.504 107.376 46.624 107.904 46.624C108.464 46.624 109.024 46.472 109.584 46.168C109.744 46.312 109.872 46.496 109.968 46.72C110.064 46.928 110.112 47.144 110.112 47.368C110.112 47.848 109.864 48.28 109.368 48.664C108.872 49.032 108.176 49.216 107.28 49.216ZM116.972 49.216C115.98 49.216 115.076 49.024 114.26 48.64C113.444 48.24 112.796 47.704 112.316 47.032C111.836 46.344 111.596 45.576 111.596 44.728V41.536C111.596 40.64 111.844 39.832 112.34 39.112C112.836 38.392 113.492 37.824 114.308 37.408C115.14 36.992 116.036 36.784 116.996 36.784C117.94 36.784 118.804 36.984 119.588 37.384C120.388 37.768 121.02 38.312 121.484 39.016C121.948 39.704 122.18 40.496 122.18 41.392V42.736C122.18 43.088 122.044 43.384 121.772 43.624C121.516 43.864 121.188 43.984 120.788 43.984H114.5V44.512C114.5 45.2 114.708 45.76 115.124 46.192C115.54 46.624 116.164 46.84 116.996 46.84C117.796 46.84 118.388 46.664 118.772 46.312C119.172 45.96 119.372 45.504 119.372 44.944C119.66 44.912 119.86 44.896 119.972 44.896C120.564 44.896 121.028 45.032 121.364 45.304C121.7 45.56 121.868 45.928 121.868 46.408C121.868 46.872 121.652 47.32 121.22 47.752C120.788 48.184 120.196 48.536 119.444 48.808C118.692 49.08 117.868 49.216 116.972 49.216ZM119.468 41.848V41.392C119.468 40.72 119.236 40.176 118.772 39.76C118.308 39.344 117.708 39.136 116.972 39.136C116.236 39.136 115.636 39.344 115.172 39.76C114.724 40.16 114.5 40.704 114.5 41.392V41.848H119.468ZM124.49 39.088C124.49 38.352 124.722 37.784 125.186 37.384C125.65 36.984 126.354 36.784 127.298 36.784V38.224C127.01 38.576 126.818 38.832 126.722 38.992L126.89 39.088C127.386 38.336 127.914 37.768 128.474 37.384C129.034 36.984 129.698 36.784 130.466 36.784C131.858 36.784 132.818 37.464 133.346 38.824C133.746 38.184 134.258 37.688 134.882 37.336C135.506 36.968 136.21 36.784 136.994 36.784C138.082 36.784 138.946 37.184 139.586 37.984C140.242 38.768 140.57 39.776 140.57 41.008V47.392C140.57 48.032 140.322 48.496 139.826 48.784C139.346 49.072 138.61 49.216 137.618 49.216V41.248C137.618 40.656 137.482 40.184 137.21 39.832C136.954 39.48 136.554 39.304 136.01 39.304C135.434 39.304 134.946 39.504 134.546 39.904C134.162 40.288 133.97 40.896 133.97 41.728V47.392C133.97 48.032 133.73 48.496 133.25 48.784C132.786 49.072 132.058 49.216 131.066 49.216V41.248C131.066 40.64 130.938 40.168 130.682 39.832C130.426 39.48 130.026 39.304 129.482 39.304C128.81 39.304 128.298 39.536 127.946 40C127.61 40.448 127.442 41.064 127.442 41.848V47.392C127.442 48.032 127.194 48.496 126.698 48.784C126.218 49.072 125.482 49.216 124.49 49.216V39.088Z" fill="black"/>
</svg>
