<svg width="328" height="282" viewBox="0 0 328 282" fill="none" xmlns="http://www.w3.org/2000/svg">
<path fill-rule="evenodd" clip-rule="evenodd" d="M320 266H303.962H24.0377H16H8C3.58172 266 0 269.582 0 274C0 278.418 3.58172 282 8 282H320C324.418 282 328 278.418 328 274C328 269.582 324.418 266 320 266ZM24 265V127.688C23.9975 126.397 24.2739 125.119 24.8135 123.926C25.3531 122.733 26.1452 121.649 27.1446 120.735L156.375 2.88523C157.376 1.97065 158.564 1.24504 159.872 0.749941C161.181 0.254847 162.583 0 164 0C165.417 0 166.819 0.254847 168.127 0.749941C169.436 1.24504 170.624 1.97065 171.625 2.88523L228.615 54.8766V29.48C228.615 26.8753 229.75 24.3774 231.77 22.5356C233.789 20.6938 236.528 19.6592 239.385 19.6592H260.923C263.779 19.6592 266.518 20.6938 268.538 22.5356C270.558 24.3774 271.692 26.8753 271.692 29.48V94.1598L300.855 120.735C301.855 121.649 302.647 122.733 303.186 123.926C303.726 125.119 304.003 126.397 304 127.688V265H24ZM135.74 63.208C135.74 61.0747 136.55 59.24 138.171 57.704C139.878 56.168 141.926 55.4 144.316 55.4H202.299C202.299 60.52 201.404 64.2747 199.612 66.664C197.905 68.968 195.089 70.12 191.163 70.12H152.891V91.752H186.939C186.939 96.872 186.044 100.627 184.251 103.016C182.545 105.32 179.729 106.472 175.803 106.472H152.891V133.992C152.891 138.259 151.526 141.373 148.796 143.336C146.065 145.213 141.713 146.152 135.74 146.152V63.208ZM147.906 252.336C153.623 254.213 160.322 255.152 168.002 255.152C175.255 255.152 181.57 254.128 186.946 252.08C192.407 249.947 196.589 246.96 199.49 243.12C202.477 239.195 203.97 234.629 203.97 229.424C203.97 224.389 202.818 220.165 200.514 216.752C198.21 213.253 194.498 210.309 189.378 207.92C184.258 205.445 177.303 203.227 168.514 201.264C163.309 200.069 159.298 198.917 156.482 197.808C153.666 196.613 151.661 195.248 150.466 193.712C149.271 192.091 148.674 190.085 148.674 187.696C148.674 184.283 150.21 181.637 153.282 179.76C156.354 177.883 160.749 176.944 166.466 176.944C173.122 176.944 178.071 178.309 181.314 181.04C184.557 183.771 186.434 188.08 186.946 193.968C196.077 193.712 200.642 190.427 200.642 184.112C200.642 180.016 199.149 176.389 196.162 173.232C193.261 170.075 189.207 167.643 184.002 165.936C178.882 164.144 173.037 163.248 166.466 163.248C159.639 163.248 153.581 164.272 148.29 166.32C143.085 168.368 139.031 171.227 136.13 174.896C133.314 178.565 131.906 182.832 131.906 187.696C131.906 192.731 132.973 196.955 135.106 200.368C137.239 203.696 140.695 206.555 145.474 208.944C150.338 211.333 156.951 213.509 165.314 215.472C171.202 216.752 175.682 218.032 178.754 219.312C181.826 220.507 184.002 221.915 185.282 223.536C186.562 225.072 187.202 227.077 187.202 229.552C187.202 233.307 185.538 236.251 182.21 238.384C178.882 240.432 174.189 241.456 168.13 241.456C160.791 241.456 155.074 239.792 150.978 236.464C146.967 233.136 144.791 228.229 144.45 221.744C134.978 221.744 130.242 225.243 130.242 232.24C130.242 236.848 131.735 240.901 134.722 244.4C137.794 247.813 142.189 250.459 147.906 252.336Z" fill="black"/>
</svg>
